<svg width="102" height="25" viewBox="0 0 102 25" fill="none" xmlns="http://www.w3.org/2000/svg">
<g clip-path="url(#clip0_7222_359)">
<path d="M29.5732 17.3743H36.7459V15.2139H32.1226V7.07617H29.5732V17.3743Z" fill="black"/>
<path d="M40.995 15.934C39.9724 15.934 39.4395 15.041 39.4395 13.7016C39.4395 12.3621 39.9724 11.4547 40.995 11.4547C42.0176 11.4547 42.5649 12.3621 42.5649 13.7016C42.5649 15.041 42.0176 15.934 40.995 15.934ZM41.0094 17.6048C43.3859 17.6048 44.9414 15.9196 44.9414 13.7016C44.9414 11.4835 43.3859 9.79834 41.0094 9.79834C38.6473 9.79834 37.063 11.4835 37.063 13.7016C37.063 15.9196 38.6473 17.6048 41.0094 17.6048Z" fill="black"/>
<path d="M49.0556 19.9244C50.1502 19.9244 51.1152 19.6795 51.7633 19.1034C52.3539 18.5705 52.7427 17.7639 52.7427 16.6549V10.0007H50.4959V10.7929H50.4671C50.035 10.1735 49.3724 9.78467 48.393 9.78467C46.5639 9.78467 45.2964 11.3114 45.2964 13.4718C45.2964 15.7331 46.8375 16.9718 48.4939 16.9718C49.3868 16.9718 49.9486 16.6117 50.3806 16.122H50.4383V16.8565C50.4383 17.7495 50.0206 18.268 49.0268 18.268C48.249 18.268 47.8601 17.9368 47.7305 17.5479H45.4548C45.6853 19.089 47.0247 19.9244 49.0556 19.9244ZM49.0412 15.229C48.1626 15.229 47.5865 14.5089 47.5865 13.3998C47.5865 12.2764 48.1626 11.5562 49.0412 11.5562C50.0206 11.5562 50.5391 12.3916 50.5391 13.3854C50.5391 14.4224 50.0638 15.229 49.0412 15.229Z" fill="black"/>
<path d="M57.3622 15.934C56.3396 15.934 55.8067 15.041 55.8067 13.7016C55.8067 12.3621 56.3396 11.4547 57.3622 11.4547C58.3848 11.4547 58.9321 12.3621 58.9321 13.7016C58.9321 15.041 58.3848 15.934 57.3622 15.934ZM57.3766 17.6048C59.7531 17.6048 61.3083 15.9196 61.3083 13.7016C61.3083 11.4835 59.7531 9.79834 57.3766 9.79834C55.0145 9.79834 53.4302 11.4835 53.4302 13.7016C53.4302 15.9196 55.0145 17.6048 57.3766 17.6048Z" fill="black"/>
<path d="M61.9946 17.3743H64.3423V9.99998H61.9946V17.3743ZM61.9946 8.97737H64.3423V7.07617H61.9946V8.97737Z" fill="black"/>
<path d="M65.3604 19.8092H67.708V16.6117H67.7368C68.1977 17.231 68.8747 17.6055 69.8253 17.6055C71.7553 17.6055 73.0371 16.0788 73.0371 13.6879C73.0371 11.4698 71.8417 9.78467 69.8829 9.78467C68.8747 9.78467 68.1545 10.2312 67.6504 10.8937H67.6072V10.0007H65.3604V19.8092ZM69.2204 15.7907C68.2121 15.7907 67.636 14.9697 67.636 13.7743C67.636 12.5788 68.1545 11.6715 69.1771 11.6715C70.1854 11.6715 70.6606 12.5068 70.6606 13.7743C70.6606 15.0274 70.1133 15.7907 69.2204 15.7907Z" fill="black"/>
<path d="M76.8593 17.6055C78.7893 17.6055 80.2152 16.7701 80.2152 15.157C80.2152 13.2702 78.6885 12.9389 77.3922 12.7229C76.456 12.55 75.6206 12.478 75.6206 11.9595C75.6206 11.4986 76.0671 11.2826 76.6432 11.2826C77.2914 11.2826 77.7379 11.4842 77.8243 12.1468H79.9847C79.8695 10.6921 78.7461 9.78467 76.6577 9.78467C74.9149 9.78467 73.4746 10.5912 73.4746 12.1468C73.4746 13.8751 74.8429 14.2208 76.1247 14.4368C77.1041 14.6097 77.9971 14.6817 77.9971 15.3442C77.9971 15.8195 77.5506 16.0788 76.8449 16.0788C76.0671 16.0788 75.5774 15.7187 75.491 14.9841H73.2729C73.345 16.6117 74.6988 17.6055 76.8593 17.6055Z" fill="black"/>
<path d="M83.4045 17.5914C84.4272 17.5914 85.0753 17.1881 85.6082 16.4679H85.6514V17.3753H87.8983V10.001H85.5506V14.1202C85.5506 14.9988 85.0609 15.6037 84.2543 15.6037C83.5054 15.6037 83.1453 15.1572 83.1453 14.3507V10.001H80.812V14.8404C80.812 16.4823 81.705 17.5914 83.4045 17.5914Z" fill="black"/>
<path d="M88.9194 17.375H91.2671V13.2414C91.2671 12.3628 91.6992 11.7435 92.4338 11.7435C93.1395 11.7435 93.4708 12.2044 93.4708 12.9965V17.375H95.8185V13.2414C95.8185 12.3628 96.2362 11.7435 96.9851 11.7435C97.6909 11.7435 98.0221 12.2044 98.0221 12.9965V17.375H100.37V12.5788C100.37 10.9225 99.5344 9.78467 97.8637 9.78467C96.9131 9.78467 96.1209 10.188 95.5448 11.0809H95.516C95.1415 10.2888 94.407 9.78467 93.442 9.78467C92.3761 9.78467 91.6704 10.2888 91.2095 11.0521H91.1663V10.0007H88.9194V17.375Z" fill="black"/>
<path d="M15.2496 1.18616L12.8893 0.553711L10.9002 7.977L9.10446 1.2752L6.74411 1.90765L8.68431 9.14844L3.85173 4.31588L2.12385 6.04375L7.42459 11.3445L0.823364 9.57573L0.190918 11.936L7.40359 13.8687C7.32101 13.5125 7.27732 13.1414 7.27732 12.76C7.27732 10.0609 9.46537 7.87287 12.1645 7.87287C14.8636 7.87287 17.0517 10.0609 17.0517 12.76C17.0517 13.1389 17.0085 13.5077 16.927 13.8618L23.4819 15.6182L24.1144 13.2579L16.873 11.3176L23.4747 9.54866L22.8422 7.18837L15.6012 9.12858L20.4337 4.29604L18.7059 2.56817L13.4786 7.7954L15.2496 1.18616Z" fill="#0D9488"/>
<path d="M16.9204 13.8896C16.718 14.7452 16.2908 15.5138 15.7046 16.1296L20.4534 20.8784L22.1813 19.1505L16.9204 13.8896Z" fill="#0D9488"/>
<path d="M15.6569 16.1792C15.0637 16.7851 14.3139 17.2373 13.4731 17.4704L15.2011 23.9193L17.5614 23.2868L15.6569 16.1792Z" fill="#0D9488"/>
<path d="M13.3842 17.4939C12.9942 17.5942 12.5853 17.6475 12.1639 17.6475C11.7125 17.6475 11.2754 17.5862 10.8604 17.4717L9.13086 23.9265L11.4912 24.5589L13.3842 17.4939Z" fill="#0D9488"/>
<path d="M10.7776 17.4484C9.94963 17.2038 9.21322 16.7459 8.63206 16.1382L3.87158 20.8987L5.59946 22.6266L10.7776 17.4484Z" fill="#0D9488"/>
<path d="M8.59274 16.0955C8.02155 15.484 7.60548 14.7256 7.40744 13.8833L0.831055 15.6454L1.4635 18.0057L8.59274 16.0955Z" fill="#0D9488"/>
</g>
<defs>
<clipPath id="clip0_7222_359">
<rect width="100.821" height="24.6051" fill="white"/>
</clipPath>
</defs>
</svg>
